# xmcd CD database file
#
# Track frame offsets:
#	150
#	18106
#	36489
#	53836
#	72800
#	87256
#	110342
#	126718
#	150307
#	169512
#
# Disc length: 2597 seconds
#
# Revision: 0
# Processed by: cddbd v1.5.2PL0 Copyright (c) Steve Scherf et al.
# Submitted via: CDex 1.70beta2
#
DISCID=7a0a230a
DTITLE=Kaye Bohler - Like A Flower
DYEAR=2009
DGENRE=Blues
TTITLE0=He Helps Me
TTITLE1=How Do I Get There
TTITLE2=Wasted On You
TTITLE3=Constant State of the Blues
TTITLE4=I Got To Know
TTITLE5=Another Man's Arms
TTITLE6=Two Things At Once
TTITLE7=Got A Good Man
TTITLE8=My Heart Beats For Him
TTITLE9=Like A Flower
EXTD=YEAR: 2009
EXTT0=
EXTT1=
EXTT2=
EXTT3=
EXTT4=
EXTT5=
EXTT6=
EXTT7=
EXTT8=
EXTT9=
PLAYORDER=
